<svg width="122" height="122" viewBox="0 0 122 122" fill="none" xmlns="http://www.w3.org/2000/svg">
<rect x="1" y="1" width="120" height="120" rx="4" fill="#1A1B20"/>
<g clip-path="url(#clip0_465_39)">
<path d="M60.049 23.9266C60.3483 23.0054 61.6517 23.0054 61.951 23.9266L69.7568 47.9473C69.8907 48.3593 70.2746 48.6382 70.7078 48.6382L95.965 48.6392C96.9337 48.6392 97.3364 49.8788 96.5527 50.4482L76.1199 65.2947C75.7694 65.5494 75.6228 66.0007 75.7566 66.4127L83.5606 90.434C83.8599 91.3553 82.8055 92.1213 82.0218 91.552L61.5878 76.707C61.2373 76.4524 60.7627 76.4524 60.4122 76.707L39.9782 91.552C39.1945 92.1213 38.1401 91.3553 38.4394 90.434L46.2434 66.4127C46.3772 66.0007 46.2306 65.5494 45.8801 65.2947L25.4472 50.4482C24.6636 49.8788 25.0663 48.6392 26.035 48.6392L51.2922 48.6382C51.7254 48.6382 52.1093 48.3593 52.2432 47.9473L60.049 23.9266Z" stroke="#868F97" stroke-width="3"/>
</g>
<rect x="1" y="1" width="120" height="120" rx="4" stroke="#313132" stroke-width="2"/>
<defs>
<clipPath id="clip0_465_39">
<rect width="80" height="80" fill="white" transform="translate(21 21)"/>
</clipPath>
</defs>
</svg>
