<svg width="122" height="122" viewBox="0 0 122 122" fill="none" xmlns="http://www.w3.org/2000/svg">
<rect x="1" y="1" width="120" height="120" rx="4" fill="#1A1B20"/>
<path d="M61 47.6667V91M61 47.6667C61 47.6667 61 42.6907 61 41C61 37.3181 63.9848 34.3333 67.6667 34.3333C71.3486 34.3333 74.3333 37.3181 74.3333 41C74.3333 44.6819 71.3486 47.6667 67.6667 47.6667C65.6755 47.6667 61 47.6667 61 47.6667ZM61 47.6667C61 47.6667 61 41.2097 61 39.3333C61 34.731 57.269 31 52.6667 31C48.0643 31 44.3333 34.731 44.3333 39.3333C44.3333 43.9357 48.0643 47.6667 52.6667 47.6667C55.3927 47.6667 61 47.6667 61 47.6667ZM37.6667 61H84.3333M37.6667 61C33.9848 61 31 58.0152 31 54.3333C31 50.6514 33.9848 47.6667 37.6667 47.6667H84.3333C88.0152 47.6667 91 50.6514 91 54.3333C91 58.0152 88.0152 61 84.3333 61M37.6667 61L37.6667 84.3333C37.6667 88.0152 40.6514 91 44.3333 91H77.6667C81.3486 91 84.3333 88.0152 84.3333 84.3333V61" stroke="#868F97" stroke-width="3" stroke-linecap="round" stroke-linejoin="round"/>
<rect x="1" y="1" width="120" height="120" rx="4" stroke="#313132" stroke-width="2"/>
</svg>
