<svg width="122" height="122" viewBox="0 0 122 122" fill="none" xmlns="http://www.w3.org/2000/svg">
<rect x="1" y="1" width="120" height="120" rx="4" fill="#1A1B20"/>
<path d="M77.6667 87.6667H94.3333V81C94.3333 75.4772 89.8562 71 84.3333 71C81.148 71 78.3105 72.4894 76.4792 74.8097M77.6667 87.6667H44.3333M77.6667 87.6667V81C77.6667 78.8126 77.2452 76.7235 76.4792 74.8097M44.3333 87.6667H27.6667V81C27.6667 75.4772 32.1438 71 37.6667 71C40.852 71 43.6895 72.4894 45.5208 74.8097M44.3333 87.6667V81C44.3333 78.8126 44.7547 76.7235 45.5208 74.8097M45.5208 74.8097C47.9783 68.6701 53.9827 64.3334 61 64.3334C68.0173 64.3334 74.0217 68.6701 76.4792 74.8097M71 44.3334C71 49.8562 66.5228 54.3334 61 54.3334C55.4771 54.3334 51 49.8562 51 44.3334C51 38.8105 55.4771 34.3334 61 34.3334C66.5228 34.3334 71 38.8105 71 44.3334ZM91 54.3334C91 58.0153 88.0152 61 84.3333 61C80.6514 61 77.6667 58.0153 77.6667 54.3334C77.6667 50.6515 80.6514 47.6667 84.3333 47.6667C88.0152 47.6667 91 50.6515 91 54.3334ZM44.3333 54.3334C44.3333 58.0153 41.3486 61 37.6667 61C33.9848 61 31 58.0153 31 54.3334C31 50.6515 33.9848 47.6667 37.6667 47.6667C41.3486 47.6667 44.3333 50.6515 44.3333 54.3334Z" stroke="#868F97" stroke-width="3" stroke-linecap="round" stroke-linejoin="round"/>
<rect x="1" y="1" width="120" height="120" rx="4" stroke="#313132" stroke-width="2"/>
</svg>
